<svg width="69" height="69" viewBox="0 0 69 69" fill="none" xmlns="http://www.w3.org/2000/svg">
<circle cx="34.5" cy="34.5" r="34.5" fill="black"/>
<path d="M39.2971 47.3102H32.2085V35.6524C32.2085 33.7317 33.6351 30.2478 36.3993 30.3371C38.6105 30.4086 39.2525 32.4811 39.2971 33.5084V47.3102Z" fill="white"/>
<path d="M16.56 47.4442V27.0318L25.5657 20.6294L32.2977 15.8434L34.8246 14.047C35.2873 13.718 35.9068 13.7174 36.3702 14.0453L51.7047 24.8962C53.5973 26.2355 54.7227 28.4122 54.7227 30.7336V47.4442H48.5703C47.1422 47.4442 45.9845 46.2843 45.9845 44.8536V31.5431C45.9845 27.9662 43.0903 25.0665 39.52 25.0665C36.7309 25.0665 34.0935 26.339 32.3545 28.5237L32.2977 28.5951V15.8434L25.5657 20.6294L25.3619 45.1409C25.3513 46.4161 24.3165 47.4442 23.0437 47.4442H16.56Z" fill="white"/>
</svg>
