<svg width="198" height="287" viewBox="0 0 198 287" fill="none" xmlns="http://www.w3.org/2000/svg">
<mask id="mask0_5_1616" style="mask-type:alpha" maskUnits="userSpaceOnUse" x="0" y="0" width="198" height="287">
<rect y="287" width="287" height="198" transform="rotate(-90 0 287)" fill="#010101"/>
</mask>
<g mask="url(#mask0_5_1616)">
<circle cx="23.5" cy="281.5" r="1.5" transform="rotate(-90 23.5 281.5)" fill="#010101"/>
<circle cx="23.5" cy="243.5" r="1.5" transform="rotate(-90 23.5 243.5)" fill="#010101"/>
<circle cx="23.5" cy="205.5" r="1.5" transform="rotate(-90 23.5 205.5)" fill="#010101"/>
<circle cx="23.5" cy="167.5" r="1.5" transform="rotate(-90 23.5 167.5)" fill="#010101"/>
<circle cx="23.5" cy="129.5" r="1.5" transform="rotate(-90 23.5 129.5)" fill="#010101"/>
<circle cx="23.5" cy="91.5" r="1.5" transform="rotate(-90 23.5 91.5)" fill="#010101"/>
<circle cx="23.5" cy="53.5" r="1.5" transform="rotate(-90 23.5 53.5)" fill="#010101"/>
<circle cx="23.5" cy="15.5" r="1.5" transform="rotate(-90 23.5 15.5)" fill="#010101"/>
<circle cx="61.5" cy="281.5" r="1.5" transform="rotate(-90 61.5 281.5)" fill="#010101"/>
<circle cx="61.5" cy="243.5" r="1.5" transform="rotate(-90 61.5 243.5)" fill="#010101"/>
<circle cx="61.5" cy="205.5" r="1.5" transform="rotate(-90 61.5 205.5)" fill="#010101"/>
<circle cx="61.5" cy="167.5" r="1.5" transform="rotate(-90 61.5 167.5)" fill="#010101"/>
<circle cx="61.5" cy="129.5" r="1.5" transform="rotate(-90 61.5 129.5)" fill="#010101"/>
<circle cx="61.5" cy="91.5" r="1.5" transform="rotate(-90 61.5 91.5)" fill="#010101"/>
<circle cx="61.5" cy="53.5" r="1.5" transform="rotate(-90 61.5 53.5)" fill="#010101"/>
<circle cx="61.5" cy="15.5" r="1.5" transform="rotate(-90 61.5 15.5)" fill="#010101"/>
<circle cx="99.5" cy="281.5" r="1.5" transform="rotate(-90 99.5 281.5)" fill="#010101"/>
<circle cx="99.5" cy="243.5" r="1.5" transform="rotate(-90 99.5 243.5)" fill="#010101"/>
<circle cx="99.5" cy="205.5" r="1.5" transform="rotate(-90 99.5 205.5)" fill="#010101"/>
<circle cx="99.5" cy="167.5" r="1.5" transform="rotate(-90 99.5 167.5)" fill="#010101"/>
<circle cx="99.5" cy="129.5" r="1.5" transform="rotate(-90 99.5 129.5)" fill="#010101"/>
<circle cx="99.5" cy="91.5" r="1.5" transform="rotate(-90 99.5 91.5)" fill="#010101"/>
<circle cx="99.5" cy="53.5" r="1.5" transform="rotate(-90 99.5 53.5)" fill="#010101"/>
<circle cx="99.5" cy="15.5" r="1.5" transform="rotate(-90 99.5 15.5)" fill="#010101"/>
<circle cx="137.5" cy="281.5" r="1.5" transform="rotate(-90 137.5 281.5)" fill="#010101"/>
<circle cx="137.5" cy="243.5" r="1.5" transform="rotate(-90 137.5 243.5)" fill="#010101"/>
<circle cx="137.5" cy="205.5" r="1.5" transform="rotate(-90 137.5 205.5)" fill="#010101"/>
<circle cx="137.5" cy="167.5" r="1.5" transform="rotate(-90 137.5 167.5)" fill="#010101"/>
<circle cx="137.5" cy="129.5" r="1.5" transform="rotate(-90 137.5 129.5)" fill="#010101"/>
<circle cx="137.5" cy="91.5" r="1.5" transform="rotate(-90 137.5 91.5)" fill="#010101"/>
<circle cx="137.5" cy="53.5" r="1.5" transform="rotate(-90 137.5 53.5)" fill="#010101"/>
<circle cx="137.5" cy="15.5" r="1.5" transform="rotate(-90 137.5 15.5)" fill="#010101"/>
<circle cx="175.5" cy="281.5" r="1.5" transform="rotate(-90 175.5 281.5)" fill="#010101"/>
<circle cx="175.5" cy="243.5" r="1.5" transform="rotate(-90 175.5 243.5)" fill="#010101"/>
<circle cx="175.5" cy="205.5" r="1.5" transform="rotate(-90 175.5 205.5)" fill="#010101"/>
<circle cx="175.5" cy="167.5" r="1.5" transform="rotate(-90 175.5 167.5)" fill="#010101"/>
<circle cx="175.5" cy="129.5" r="1.5" transform="rotate(-90 175.5 129.5)" fill="#010101"/>
<circle cx="175.5" cy="91.5" r="1.5" transform="rotate(-90 175.5 91.5)" fill="#010101"/>
<circle cx="175.5" cy="53.5" r="1.5" transform="rotate(-90 175.5 53.5)" fill="#010101"/>
<circle cx="175.5" cy="15.5" r="1.5" transform="rotate(-90 175.5 15.5)" fill="#010101"/>
</g>
</svg>
