<svg width="192" height="289" viewBox="0 0 192 289" fill="none" xmlns="http://www.w3.org/2000/svg">
<g opacity="0.4">
<mask id="mask0_1_22538" style="mask-type:alpha" maskUnits="userSpaceOnUse" x="0" y="0" width="659" height="289">
<rect x="659" y="0.776855" width="288" height="659" transform="rotate(90 659 0.776855)" fill="#C4C4C4"/>
</mask>
<g mask="url(#mask0_1_22538)">
<rect x="764.273" y="3.36768" width="1.07194" height="828.454" transform="rotate(105 764.273 3.36768)" fill="black"/>
<rect x="762.688" y="9.28394" width="1.07194" height="828.454" transform="rotate(105 762.688 9.28394)" fill="black"/>
<rect x="761.103" y="15.2024" width="1.07194" height="828.454" transform="rotate(105 761.103 15.2024)" fill="black"/>
<rect x="759.518" y="21.1179" width="1.07194" height="828.454" transform="rotate(105 759.518 21.1179)" fill="black"/>
<rect x="757.932" y="27.0334" width="1.07194" height="828.454" transform="rotate(105 757.932 27.0334)" fill="black"/>
<rect x="748.42" y="62.5334" width="1.07194" height="828.454" transform="rotate(105 748.42 62.5334)" fill="black"/>
<rect x="756.347" y="32.9519" width="1.07194" height="828.454" transform="rotate(105 756.347 32.9519)" fill="black"/>
<rect x="746.835" y="68.4514" width="1.07194" height="828.454" transform="rotate(105 746.835 68.4514)" fill="black"/>
<rect x="754.761" y="38.8704" width="1.07194" height="828.454" transform="rotate(105 754.761 38.8704)" fill="black"/>
<rect x="745.249" y="74.3674" width="1.07194" height="828.454" transform="rotate(105 745.249 74.3674)" fill="black"/>
<rect x="753.176" y="44.7856" width="1.07194" height="828.454" transform="rotate(105 753.176 44.7856)" fill="black"/>
<rect x="743.664" y="80.2859" width="1.07194" height="828.454" transform="rotate(105 743.664 80.2859)" fill="black"/>
<rect x="751.591" y="50.7019" width="1.07194" height="828.454" transform="rotate(105 751.591 50.7019)" fill="black"/>
<rect x="742.078" y="86.2014" width="1.07194" height="828.454" transform="rotate(105 742.078 86.2014)" fill="black"/>
<rect x="750.005" y="56.6174" width="1.07194" height="828.454" transform="rotate(105 750.005 56.6174)" fill="black"/>
<rect x="740.493" y="92.1169" width="1.07194" height="828.454" transform="rotate(105 740.493 92.1169)" fill="black"/>
<rect x="739.114" y="97.2678" width="1.07194" height="828.454" transform="rotate(105 739.114 97.2678)" fill="black"/>
<rect x="729.602" y="132.765" width="1.07194" height="828.454" transform="rotate(105 729.602 132.765)" fill="black"/>
<rect x="737.528" y="103.184" width="1.07194" height="828.454" transform="rotate(105 737.528 103.184)" fill="black"/>
<rect x="728.016" y="138.686" width="1.07194" height="828.454" transform="rotate(105 728.016 138.686)" fill="black"/>
<rect x="735.943" y="109.099" width="1.07194" height="828.454" transform="rotate(105 735.943 109.099)" fill="black"/>
<rect x="726.431" y="144.602" width="1.07194" height="828.454" transform="rotate(105 726.431 144.602)" fill="black"/>
<rect x="734.358" y="115.018" width="1.07194" height="828.454" transform="rotate(105 734.358 115.018)" fill="black"/>
<rect x="724.845" y="150.517" width="1.07194" height="828.454" transform="rotate(105 724.845 150.517)" fill="black"/>
<rect x="732.772" y="120.933" width="1.07194" height="828.454" transform="rotate(105 732.772 120.933)" fill="black"/>
<rect x="723.26" y="156.434" width="1.07194" height="828.454" transform="rotate(105 723.26 156.434)" fill="black"/>
<rect x="731.187" y="126.849" width="1.07194" height="828.454" transform="rotate(105 731.187 126.849)" fill="black"/>
<rect x="721.674" y="162.349" width="1.07194" height="828.454" transform="rotate(105 721.674 162.349)" fill="black"/>
<rect x="720.089" y="168.268" width="1.07194" height="828.454" transform="rotate(105 720.089 168.268)" fill="black"/>
<rect x="710.577" y="203.767" width="1.07194" height="828.454" transform="rotate(105 710.577 203.767)" fill="black"/>
<rect x="718.504" y="174.183" width="1.07194" height="828.454" transform="rotate(105 718.504 174.183)" fill="black"/>
<rect x="708.992" y="209.683" width="1.07194" height="828.454" transform="rotate(105 708.992 209.683)" fill="black"/>
<rect x="716.919" y="180.099" width="1.07194" height="828.454" transform="rotate(105 716.919 180.099)" fill="black"/>
<rect x="707.407" y="215.599" width="1.07194" height="828.454" transform="rotate(105 707.407 215.599)" fill="black"/>
<rect x="715.333" y="186.015" width="1.07194" height="828.454" transform="rotate(105 715.333 186.015)" fill="black"/>
<rect x="705.821" y="221.517" width="1.07194" height="828.454" transform="rotate(105 705.821 221.517)" fill="black"/>
<rect x="713.748" y="191.931" width="1.07194" height="828.454" transform="rotate(105 713.748 191.931)" fill="black"/>
<rect x="704.236" y="227.433" width="1.07194" height="828.454" transform="rotate(105 704.236 227.433)" fill="black"/>
<rect x="712.163" y="197.852" width="1.07194" height="828.454" transform="rotate(105 712.163 197.852)" fill="black"/>
<rect x="702.65" y="233.349" width="1.07194" height="828.454" transform="rotate(105 702.65 233.349)" fill="black"/>
<rect x="701.065" y="239.267" width="1.07194" height="828.454" transform="rotate(105 701.065 239.267)" fill="black"/>
<rect x="691.553" y="274.764" width="1.07194" height="828.454" transform="rotate(105 691.553 274.764)" fill="black"/>
<rect x="699.48" y="245.183" width="1.07194" height="828.454" transform="rotate(105 699.48 245.183)" fill="black"/>
<rect x="689.968" y="280.682" width="1.07194" height="828.454" transform="rotate(105 689.968 280.682)" fill="black"/>
<rect x="697.894" y="251.101" width="1.07194" height="828.454" transform="rotate(105 697.894 251.101)" fill="black"/>
<rect x="688.382" y="286.601" width="1.07194" height="828.454" transform="rotate(105 688.382 286.601)" fill="black"/>
<rect x="696.309" y="257.017" width="1.07194" height="828.454" transform="rotate(105 696.309 257.017)" fill="black"/>
<rect x="686.797" y="292.516" width="1.07194" height="828.454" transform="rotate(105 686.797 292.516)" fill="black"/>
<rect x="694.724" y="262.933" width="1.07194" height="828.454" transform="rotate(105 694.724 262.933)" fill="black"/>
<rect x="685.212" y="298.432" width="1.07194" height="828.454" transform="rotate(105 685.212 298.432)" fill="black"/>
<rect x="693.138" y="268.848" width="1.07194" height="828.454" transform="rotate(105 693.138 268.848)" fill="black"/>
<rect x="683.626" y="304.351" width="1.07194" height="828.454" transform="rotate(105 683.626 304.351)" fill="black"/>
<rect x="682.041" y="310.266" width="1.07194" height="828.454" transform="rotate(105 682.041 310.266)" fill="black"/>
<rect x="672.529" y="345.766" width="1.07194" height="828.454" transform="rotate(105 672.529 345.766)" fill="black"/>
<rect x="680.455" y="316.182" width="1.07194" height="828.454" transform="rotate(105 680.455 316.182)" fill="black"/>
<rect x="670.943" y="351.682" width="1.07194" height="828.454" transform="rotate(105 670.943 351.682)" fill="black"/>
<rect x="678.87" y="322.098" width="1.07194" height="828.454" transform="rotate(105 678.87 322.098)" fill="black"/>
<rect x="669.358" y="357.601" width="1.07194" height="828.454" transform="rotate(105 669.358 357.601)" fill="black"/>
<rect x="677.285" y="328.013" width="1.07194" height="828.454" transform="rotate(105 677.285 328.013)" fill="black"/>
<rect x="667.773" y="363.516" width="1.07194" height="828.454" transform="rotate(105 667.773 363.516)" fill="black"/>
<rect x="675.699" y="333.935" width="1.07194" height="828.454" transform="rotate(105 675.699 333.935)" fill="black"/>
<rect x="666.187" y="369.432" width="1.07194" height="828.454" transform="rotate(105 666.187 369.432)" fill="black"/>
<rect x="674.114" y="339.85" width="1.07194" height="828.454" transform="rotate(105 674.114 339.85)" fill="black"/>
<rect x="664.602" y="375.348" width="1.07194" height="828.454" transform="rotate(105 664.602 375.348)" fill="black"/>
<rect x="663.016" y="381.263" width="1.07194" height="828.454" transform="rotate(105 663.016 381.263)" fill="black"/>
<rect x="653.504" y="416.766" width="1.07194" height="828.454" transform="rotate(105 653.504 416.766)" fill="black"/>
<rect x="661.431" y="387.184" width="1.07194" height="828.454" transform="rotate(105 661.431 387.184)" fill="black"/>
<rect x="651.919" y="422.681" width="1.07194" height="828.454" transform="rotate(105 651.919 422.681)" fill="black"/>
<rect x="659.845" y="393.1" width="1.07194" height="828.454" transform="rotate(105 659.845 393.1)" fill="black"/>
<rect x="650.333" y="428.6" width="1.07194" height="828.454" transform="rotate(105 650.333 428.6)" fill="black"/>
<rect x="658.26" y="399.016" width="1.07194" height="828.454" transform="rotate(105 658.26 399.016)" fill="black"/>
<rect x="648.748" y="434.516" width="1.07194" height="828.454" transform="rotate(105 648.748 434.516)" fill="black"/>
<rect x="656.675" y="404.932" width="1.07194" height="828.454" transform="rotate(105 656.675 404.932)" fill="black"/>
<rect x="647.163" y="440.434" width="1.07194" height="828.454" transform="rotate(105 647.163 440.434)" fill="black"/>
<rect x="655.09" y="410.847" width="1.07194" height="828.454" transform="rotate(105 655.09 410.847)" fill="black"/>
<rect x="645.578" y="446.35" width="1.07194" height="828.454" transform="rotate(105 645.578 446.35)" fill="black"/>
<rect x="643.992" y="452.265" width="1.07194" height="828.454" transform="rotate(105 643.992 452.265)" fill="black"/>
<rect x="634.48" y="487.765" width="1.07194" height="828.454" transform="rotate(105 634.48 487.765)" fill="black"/>
<rect x="642.407" y="458.181" width="1.07194" height="828.454" transform="rotate(105 642.407 458.181)" fill="black"/>
<rect x="632.895" y="493.681" width="1.07194" height="828.454" transform="rotate(105 632.895 493.681)" fill="black"/>
<rect x="640.821" y="464.097" width="1.07194" height="828.454" transform="rotate(105 640.821 464.097)" fill="black"/>
<rect x="631.309" y="499.599" width="1.07194" height="828.454" transform="rotate(105 631.309 499.599)" fill="black"/>
<rect x="639.236" y="470.018" width="1.07194" height="828.454" transform="rotate(105 639.236 470.018)" fill="black"/>
<rect x="637.651" y="475.933" width="1.07194" height="828.454" transform="rotate(105 637.651 475.933)" fill="black"/>
<rect x="636.065" y="481.849" width="1.07194" height="828.454" transform="rotate(105 636.065 481.849)" fill="black"/>
</g>
</g>
</svg>
