<svg width="329" height="373" viewBox="0 0 329 373" fill="none" xmlns="http://www.w3.org/2000/svg">
<path d="M260 36.1703C262.962 35.3239 265.764 33.0712 268.333 31.5036C276.476 26.5362 284.557 21.4507 292.778 16.6147C301.816 11.2982 328.526 -4.46648 321.111 2.94806C307.362 16.6968 294.246 31.2214 282.889 47.0592C281.145 49.4904 275.289 54.1391 278.222 54.7258C280.145 55.1104 289.62 47.6621 291 46.8369C299.863 41.5373 308.505 35.8794 317.389 30.6147C320.824 28.5793 330.143 21.6909 328 25.0592C326.055 28.115 322.38 30.7533 319.889 33.3369C315.077 38.3269 310.492 43.5256 305.667 48.5036C301.315 52.9935 303.801 51.2109 307.444 49.1703C310.827 47.2763 314.235 45.1116 318 44.1703" stroke="white" stroke-linecap="round"/>
<g opacity="0.3">
<mask id="mask0_24_3810" style="mask-type:alpha" maskUnits="userSpaceOnUse" x="-153" y="149" width="349" height="224">
<rect x="-153" y="149" width="349" height="224" fill="#244034"/>
</mask>
<g mask="url(#mask0_24_3810)">
<rect width="1.56836" height="1955.43" transform="matrix(0.707107 0.707107 -0.474641 0.88018 20.6919 -101.435)" fill="white"/>
<rect width="1.56836" height="1955.43" transform="matrix(0.707107 0.707107 -0.474641 0.88018 27.0303 -95.0964)" fill="white"/>
<rect width="1.56836" height="1955.43" transform="matrix(0.707107 0.707107 -0.474641 0.88018 33.3679 -88.7603)" fill="white"/>
<rect width="1.56836" height="1955.43" transform="matrix(0.707107 0.707107 -0.474641 0.88018 1.68286 -120.446)" fill="white"/>
<rect width="1.56836" height="1955.43" transform="matrix(0.707107 0.707107 -0.474641 0.88018 39.7037 -82.4231)" fill="white"/>
<rect width="1.56836" height="1955.43" transform="matrix(0.707107 0.707107 -0.474641 0.88018 8.01874 -114.108)" fill="white"/>
<rect width="1.56836" height="1955.43" transform="matrix(0.707107 0.707107 -0.474641 0.88018 46.0399 -76.0864)" fill="white"/>
<rect width="1.56836" height="1955.43" transform="matrix(0.707107 0.707107 -0.474641 0.88018 14.3546 -107.772)" fill="white"/>
<rect width="1.56836" height="1955.43" transform="matrix(0.707107 0.707107 -0.474641 0.88018 52.3769 -69.7495)" fill="white"/>
<rect width="1.56836" height="1955.43" transform="matrix(0.707107 0.707107 -0.474641 0.88018 58.7177 -63.4106)" fill="white"/>
<rect width="1.56836" height="1955.43" transform="matrix(0.707107 0.707107 -0.474641 0.88018 96.7386 -25.3886)" fill="white"/>
<rect width="1.56836" height="1955.43" transform="matrix(0.707107 0.707107 -0.474641 0.88018 65.0522 -57.0739)" fill="white"/>
<rect width="1.56836" height="1955.43" transform="matrix(0.707107 0.707107 -0.474641 0.88018 103.075 -19.0516)" fill="white"/>
<rect width="1.56836" height="1955.43" transform="matrix(0.707107 0.707107 -0.474641 0.88018 71.3898 -50.7371)" fill="white"/>
<rect width="1.56836" height="1955.43" transform="matrix(0.707107 0.707107 -0.474641 0.88018 109.411 -12.7147)" fill="white"/>
<rect width="1.56836" height="1955.43" transform="matrix(0.707107 0.707107 -0.474641 0.88018 77.7256 -44.4007)" fill="white"/>
<rect width="1.56836" height="1955.43" transform="matrix(0.707107 0.707107 -0.474641 0.88018 115.751 -6.37653)" fill="white"/>
<rect width="1.56836" height="1955.43" transform="matrix(0.707107 0.707107 -0.474641 0.88018 84.0626 -38.0638)" fill="white"/>
<rect width="1.56836" height="1955.43" transform="matrix(0.707107 0.707107 -0.474641 0.88018 122.088 -0.0396729)" fill="white"/>
<rect width="1.56836" height="1955.43" transform="matrix(0.707107 0.707107 -0.474641 0.88018 90.402 -31.7252)" fill="white"/>
<rect width="1.56836" height="1955.43" transform="matrix(0.707107 0.707107 -0.474641 0.88018 128.423 6.297)" fill="white"/>
<rect width="1.56836" height="1955.43" transform="matrix(0.707107 0.707107 -0.474641 0.88018 134.76 12.6335)" fill="white"/>
<rect width="1.56836" height="1955.43" transform="matrix(0.707107 0.707107 -0.474641 0.88018 172.782 50.6565)" fill="white"/>
<rect width="1.56836" height="1955.43" transform="matrix(0.707107 0.707107 -0.474641 0.88018 141.098 18.9705)" fill="white"/>
<rect width="1.56836" height="1955.43" transform="matrix(0.707107 0.707107 -0.474641 0.88018 179.122 56.9943)" fill="white"/>
<rect width="1.56836" height="1955.43" transform="matrix(0.707107 0.707107 -0.474641 0.88018 147.437 25.3088)" fill="white"/>
<rect width="1.56836" height="1955.43" transform="matrix(0.707107 0.707107 -0.474641 0.88018 185.459 63.3311)" fill="white"/>
<rect width="1.56836" height="1955.43" transform="matrix(0.707107 0.707107 -0.474641 0.88018 153.773 31.6456)" fill="white"/>
<rect width="1.56836" height="1955.43" transform="matrix(0.707107 0.707107 -0.474641 0.88018 191.794 69.6679)" fill="white"/>
<rect width="1.56836" height="1955.43" transform="matrix(0.707107 0.707107 -0.474641 0.88018 160.11 37.9829)" fill="white"/>
<rect width="1.56836" height="1955.43" transform="matrix(0.707107 0.707107 -0.474641 0.88018 198.131 76.005)" fill="white"/>
<rect width="1.56836" height="1955.43" transform="matrix(0.707107 0.707107 -0.474641 0.88018 166.446 44.3195)" fill="white"/>
<rect width="1.56836" height="1955.43" transform="matrix(0.707107 0.707107 -0.474641 0.88018 204.471 82.3434)" fill="white"/>
<rect width="1.56836" height="1955.43" transform="matrix(0.707107 0.707107 -0.474641 0.88018 210.808 88.6801)" fill="white"/>
<rect width="1.56836" height="1955.43" transform="matrix(0.707107 0.707107 -0.474641 0.88018 248.829 126.703)" fill="white"/>
<rect width="1.56836" height="1955.43" transform="matrix(0.707107 0.707107 -0.474641 0.88018 217.143 95.0171)" fill="white"/>
<rect width="1.56836" height="1955.43" transform="matrix(0.707107 0.707107 -0.474641 0.88018 255.164 133.039)" fill="white"/>
<rect width="1.56836" height="1955.43" transform="matrix(0.707107 0.707107 -0.474641 0.88018 223.479 101.354)" fill="white"/>
<rect width="1.56836" height="1955.43" transform="matrix(0.707107 0.707107 -0.474641 0.88018 261.505 139.378)" fill="white"/>
<rect width="1.56836" height="1955.43" transform="matrix(0.707107 0.707107 -0.474641 0.88018 229.817 107.691)" fill="white"/>
<rect width="1.56836" height="1955.43" transform="matrix(0.707107 0.707107 -0.474641 0.88018 267.842 145.715)" fill="white"/>
<rect width="1.56836" height="1955.43" transform="matrix(0.707107 0.707107 -0.474641 0.88018 236.157 114.028)" fill="white"/>
<rect width="1.56836" height="1955.43" transform="matrix(0.707107 0.707107 -0.474641 0.88018 274.178 152.051)" fill="white"/>
<rect width="1.56836" height="1955.43" transform="matrix(0.707107 0.707107 -0.474641 0.88018 242.492 120.365)" fill="white"/>
<rect width="1.56836" height="1955.43" transform="matrix(0.707107 0.707107 -0.474641 0.88018 280.514 158.388)" fill="white"/>
<rect width="1.56836" height="1955.43" transform="matrix(0.707107 0.707107 -0.474641 0.88018 286.85 164.725)" fill="white"/>
<rect width="1.56836" height="1955.43" transform="matrix(0.707107 0.707107 -0.474641 0.88018 324.877 202.748)" fill="white"/>
<rect width="1.56836" height="1955.43" transform="matrix(0.707107 0.707107 -0.474641 0.88018 293.19 171.063)" fill="white"/>
<rect width="1.56836" height="1955.43" transform="matrix(0.707107 0.707107 -0.474641 0.88018 331.213 209.085)" fill="white"/>
<rect width="1.56836" height="1955.43" transform="matrix(0.707107 0.707107 -0.474641 0.88018 299.528 177.4)" fill="white"/>
<rect width="1.56836" height="1955.43" transform="matrix(0.707107 0.707107 -0.474641 0.88018 337.547 215.422)" fill="white"/>
<rect width="1.56836" height="1955.43" transform="matrix(0.707107 0.707107 -0.474641 0.88018 305.863 183.737)" fill="white"/>
<rect width="1.56836" height="1955.43" transform="matrix(0.707107 0.707107 -0.474641 0.88018 343.885 221.759)" fill="white"/>
<rect width="1.56836" height="1955.43" transform="matrix(0.707107 0.707107 -0.474641 0.88018 312.2 190.074)" fill="white"/>
<rect width="1.56836" height="1955.43" transform="matrix(0.707107 0.707107 -0.474641 0.88018 350.225 228.097)" fill="white"/>
<rect width="1.56836" height="1955.43" transform="matrix(0.707107 0.707107 -0.474641 0.88018 318.535 196.41)" fill="white"/>
<rect width="1.56836" height="1955.43" transform="matrix(0.707107 0.707107 -0.474641 0.88018 356.561 234.434)" fill="white"/>
<rect width="1.56836" height="1955.43" transform="matrix(0.707107 0.707107 -0.474641 0.88018 362.897 240.771)" fill="white"/>
<rect width="1.56836" height="1955.43" transform="matrix(0.707107 0.707107 -0.474641 0.88018 400.918 278.793)" fill="white"/>
<rect width="1.56836" height="1955.43" transform="matrix(0.707107 0.707107 -0.474641 0.88018 369.234 247.108)" fill="white"/>
<rect width="1.56836" height="1955.43" transform="matrix(0.707107 0.707107 -0.474641 0.88018 407.256 285.13)" fill="white"/>
<rect width="1.56836" height="1955.43" transform="matrix(0.707107 0.707107 -0.474641 0.88018 375.571 253.445)" fill="white"/>
<rect width="1.56836" height="1955.43" transform="matrix(0.707107 0.707107 -0.474641 0.88018 413.596 291.468)" fill="white"/>
<rect width="1.56836" height="1955.43" transform="matrix(0.707107 0.707107 -0.474641 0.88018 381.911 259.783)" fill="white"/>
<rect width="1.56836" height="1955.43" transform="matrix(0.707107 0.707107 -0.474641 0.88018 419.932 297.805)" fill="white"/>
<rect width="1.56836" height="1955.43" transform="matrix(0.707107 0.707107 -0.474641 0.88018 388.246 266.12)" fill="white"/>
<rect width="1.56836" height="1955.43" transform="matrix(0.707107 0.707107 -0.474641 0.88018 426.268 304.142)" fill="white"/>
<rect width="1.56836" height="1955.43" transform="matrix(0.707107 0.707107 -0.474641 0.88018 394.584 272.456)" fill="white"/>
<rect width="1.56836" height="1955.43" transform="matrix(0.707107 0.707107 -0.474641 0.88018 432.604 310.479)" fill="white"/>
<rect width="1.56836" height="1955.43" transform="matrix(0.707107 0.707107 -0.474641 0.88018 438.944 316.817)" fill="white"/>
<rect width="1.56836" height="1955.43" transform="matrix(0.707107 0.707107 -0.474641 0.88018 476.967 354.839)" fill="white"/>
<rect width="1.56836" height="1955.43" transform="matrix(0.707107 0.707107 -0.474641 0.88018 445.281 323.154)" fill="white"/>
<rect width="1.56836" height="1955.43" transform="matrix(0.707107 0.707107 -0.474641 0.88018 483.303 361.176)" fill="white"/>
<rect width="1.56836" height="1955.43" transform="matrix(0.707107 0.707107 -0.474641 0.88018 451.617 329.491)" fill="white"/>
<rect width="1.56836" height="1955.43" transform="matrix(0.707107 0.707107 -0.474641 0.88018 489.64 367.513)" fill="white"/>
<rect width="1.56836" height="1955.43" transform="matrix(0.707107 0.707107 -0.474641 0.88018 457.955 335.828)" fill="white"/>
<rect width="1.56836" height="1955.43" transform="matrix(0.707107 0.707107 -0.474641 0.88018 464.29 342.164)" fill="white"/>
<rect width="1.56836" height="1955.43" transform="matrix(0.707107 0.707107 -0.474641 0.88018 470.631 348.502)" fill="white"/>
</g>
</g>
</svg>
